PathFileType	4	(X/Y/Z)	..\data\2014031\dynamic\2014031_C5_05.trc
DataRate	CameraRate	NumFrames	NumMarkers	Units	OrigDataRate	OrigDataStartFrame	OrigNumFrames
100.000000	100.000000	4	52	mm	100.000000	133	153
Frame#	Time	L_IAS			L_IPS			R_IPS			R_IAS			L_FTC			L_FLE			L_FME			L_FAX			L_TTC			L_FAL			L_TAM			L_FCC			L_FM1			L_FM2			L_FM5			R_FTC			R_FLE			R_FME			R_FAX			R_TTC			R_FAL			R_TAM			R_FCC			R_FM1			R_FM2			R_FM5			CV7			TV10			SXS			SJN			L_SIA			L_SRS			L_SAA			L_SAE			L_HLE			L_HME			L_UOA			L_RSP			L_UHE			L_HM2			L_HM5			R_SIA			R_SRS			R_SAA			R_SAE			R_HLE			R_HME			R_UOA			R_RSP			R_UHE			R_HM2			R_HM5			
		X1	Y1	Z1	X2	Y2	Z2	X3	Y3	Z3	X4	Y4	Z4	X5	Y5	Z5	X6	Y6	Z6	X7	Y7	Z7	X8	Y8	Z8	X9	Y9	Z9	X10	Y10	Z10	X11	Y11	Z11	X12	Y12	Z12	X13	Y13	Z13	X14	Y14	Z14	X15	Y15	Z15	X16	Y16	Z16	X17	Y17	Z17	X18	Y18	Z18	X19	Y19	Z19	X20	Y20	Z20	X21	Y21	Z21	X22	Y22	Z22	X23	Y23	Z23	X24	Y24	Z24	X25	Y25	Z25	X26	Y26	Z26	X27	Y27	Z27	X28	Y28	Z28	X29	Y29	Z29	X30	Y30	Z30	X31	Y31	Z31	X32	Y32	Z32	X33	Y33	Z33	X34	Y34	Z34	X35	Y35	Z35	X36	Y36	Z36	X37	Y37	Z37	X38	Y38	Z38	X39	Y39	Z39	X40	Y40	Z40	X41	Y41	Z41	X42	Y42	Z42	X43	Y43	Z43	X44	Y44	Z44	X45	Y45	Z45	X46	Y46	Z46	X47	Y47	Z47	X48	Y48	Z48	X49	Y49	Z49	X50	Y50	Z50	X51	Y51	Z51	X52	Y52	Z52	

134	1.33	1770.166625976563	956.279968261719	-352.7672119140626	1578.767333984375	985.8438110351565	-283.2943725585938	1582.455444335938	977.8339843750002	-178.4079284667969	1775.069213867188	960.7138671875002	-126.6441345214844	1662.000366210938	880.8070068359377	-423.7656860351564	1622.428100585938	466.4449462890626	-356.1003723144532	1618.810668945313	470.4058227539064	-225.8436279296876	1600.480590820313	407.4647827148439	-351.5746765136719	1661.808349609375	403.4497070312501	-291.6027832031251	1512.436767578125	74.4413528442383	-291.9575500488282	1541.896240234375	95.31064605712892	-204.0345153808594	1465.90185546875	32.27681732177735	-244.2612457275391	1657.147705078125	20.56400680541993	-205.6057891845704	1667.158081054688	33.25902938842774	-263.5342102050782	1621.839599609375	21.86781311035157	-317.5246276855469	1707.739624023438	868.2835693359377	-53.36336135864259	1868.514770507813	498.4467773437501	-93.85927581787111	1885.123779296875	490.3453674316407	-219.9024200439454	1863.413208007813	440.8997497558595	-91.27525329589845	1930.222045898438	438.5550842285157	-140.7816925048828	1799.755981445313	103.3382034301758	-122.5255508422852	1844.164794921875	118.7890090942383	-202.9856567382813	1767.12939453125	54.57249069213869	-180.5208129882813	1953.453979492188	42.71951293945313	-168.3989562988282	1948.228515625	56.29484939575197	-113.1297912597657	1898.172973632813	34.36420822143555	-75.93910980224611	1638.902221679688	1502.831176757813	-239.9782257080079	1561.971923828125	1224.735473632813	-243.9826812744141	1782.840209960938	1220.677734375	-239.8021240234376	1755.346923828125	1413.15234375	-240.9396362304688	1563.263916015625	1255.517456054688	-361.3634338378907	1607.202026367188	1408.905639648438	-379.2198791503907	1657.746948242188	1402.621337890625	-438.4447021484376	1705.00341796875	1405.380249023438	-434.2196350097657	1739.217041015625	1072.152954101563	-509.2863769531251	1702.525634765625	1041.34716796875	-433.8482055664064	1712.050903320313	1030.56298828125	-484.8255310058595	1944.747680664063	916.569763183594	-413.3381652832032	1920.577514648438	887.9519042968752	-486.1074523925782	2017.651733398438	864.0871582031252	-413.2893066406251	1957.765625	820.5913696289065	-482.6945190429689	1548.875122070313	1255.553833007813	-150.54833984375	1593.405029296875	1413.123413085938	-126.4939193725586	1641.133911132813	1413.59228515625	-61.04181289672853	1683.9228515625	1405.255126953125	-40.83865356445313	1613.888305664063	1074.85595703125	28.12128829956055	1582.67236328125	1062.287353515625	-52.61611938476564	1573.129638671875	1050.492553710938	-10.63862895965576	1733.98681640625	846.2681274414065	-8.710292816162111	1685.796875	833.105163574219	54.46399688720705	1766.728271484375	757.6015625000001	-5.16194248199463	1686.517944335938	747.8896484375001	57.20911788940431	
135	1.34	1782.751708984375	954.2155761718752	-353.9000854492188	1592.197631835938	984.2492675781252	-281.9714050292969	1596.899536132813	975.7166137695315	-177.3771667480469	1790.230712890625	958.2647705078127	-127.6293869018555	1672.994995117188	879.6325683593752	-423.5225219726564	1627.683837890625	466.1020812988282	-356.4987487792969	1625.20654296875	470.118621826172	-226.3000488281251	1604.90576171875	407.4147949218751	-351.8471679687501	1666.548706054688	402.6198730468751	-292.3637390136719	1513.046875	75.48508453369142	-291.7264404296876	1542.81787109375	96.06462097167972	-203.9137725830079	1466.312866210938	33.79882812500001	-243.7642669677735	1657.274047851563	20.69624519348145	-205.6259765625001	1667.194213867188	33.18793106079102	-263.5413513183594	1621.712524414063	21.9149227142334	-317.3704223632813	1723.5615234375	865.8469848632815	-53.89373779296876	1885.432495117188	496.3024902343751	-94.02651214599611	1899.559692382813	487.6322021484376	-220.5134277343751	1883.442749023438	438.0574340820314	-91.60915374755861	1949.215209960938	439.2329101562501	-141.9992218017578	1844.011962890625	97.16154479980472	-122.4964141845703	1886.2080078125	115.7303466796875	-203.6201782226563	1814.698974609375	45.82979583740235	-180.1734771728516	2001.034057617188	48.17079544067384	-170.67333984375	1995.520751953125	61.40263748168947	-115.3777847290039	1948.019165039063	35.99343872070313	-77.49398803710939	1653.7568359375	1500.933715820313	-239.4591522216797	1576.268798828125	1223.015258789063	-243.3460998535157	1797.143798828125	1218.391479492188	-240.6387786865235	1769.976196289063	1410.821655273438	-241.1014404296876	1577.364868164063	1253.886962890625	-361.0664978027344	1621.272338867188	1407.282592773438	-379.0294189453126	1671.687744140625	1401.117431640625	-438.4358520507814	1718.874389648438	1403.988159179688	-434.1744995117189	1758.491577148438	1072.27685546875	-511.1912536621095	1722.769653320313	1040.028442382813	-435.6072082519532	1732.551513671875	1029.213012695313	-486.862274169922	1971.470092773438	928.9792480468752	-412.2265014648439	1948.973510742188	897.7571411132815	-484.3130493164064	2047.789184570313	881.408142089844	-411.8144836425782	1990.248291015625	832.8131103515627	-479.7042236328126	1563.435913085938	1253.514282226563	-150.7875518798828	1608.837646484375	1411.018798828125	-126.3271255493164	1656.650512695313	1411.126220703125	-60.94584274291994	1699.44091796875	1402.486328125	-40.57839584350587	1623.663818359375	1073.300537109375	26.96990585327149	1593.359985351563	1061.21533203125	-54.04321289062501	1583.0556640625	1050.016845703125	-12.29092025756836	1736.32275390625	840.6392211914065	-6.972105503082277	1687.11083984375	829.6909790039065	55.99893188476564	1764.811767578125	750.3038330078126	-2.679863929748536	1684.20068359375	744.7125854492189	59.62401580810548	
136	1.35	1795.400024414063	952.0117187500002	-355.0081787109376	1605.783569335938	982.4678955078127	-280.6213989257813	1611.43212890625	973.382507324219	-176.3251495361328	1805.526123046875	955.5159301757815	-128.6224517822266	1684.203979492188	878.3444824218752	-423.2431030273439	1633.36865234375	465.6876220703126	-356.9055175781251	1631.912841796875	469.7351379394532	-226.7848205566407	1609.751708984375	407.3199157714845	-352.1715698242188	1671.6142578125	401.7068786621095	-293.1057434082032	1513.726806640625	76.63551330566408	-291.6836547851563	1543.77099609375	96.88175964355472	-203.919174194336	1466.708862304688	35.44967269897462	-243.4989624023438	1657.369384765625	20.84051513671875	-205.6663665771485	1667.221069335938	33.13159942626954	-263.5823669433594	1621.610961914063	21.96502304077149	-317.2803955078126	1739.373657226563	863.0027465820315	-54.43552017211915	1901.81689453125	493.7212524414064	-94.13291168212892	1913.39697265625	484.3213500976564	-221.0418701171876	1902.989868164063	435.025848388672	-91.90300750732423	1967.510620117188	439.5167846679689	-143.2112884521485	1887.5556640625	92.27072143554689	-122.6221008300782	1927.214111328125	113.6986236572266	-204.3385314941407	1861.54296875	38.53598022460938	-179.9630126953125	2046.999755859375	54.92639541625978	-173.3849792480469	2041.401000976563	67.76546478271486	-118.0547561645508	1996.709350585938	38.97484207153321	-79.4556121826172	1668.646484375	1498.836547851563	-238.8654785156251	1590.654174804688	1221.069091796875	-242.5843353271485	1811.515747070313	1215.939819335938	-241.4028625488282	1784.636474609375	1408.312866210938	-241.1890563964844	1591.53955078125	1252.039184570313	-360.6339111328126	1635.398681640625	1405.469970703125	-378.7364196777344	1685.70263671875	1399.43896484375	-438.3355407714845	1732.8369140625	1402.413696289063	-434.0305480957032	1777.586303710938	1072.300048828125	-513.0082397460939	1742.830932617188	1038.648193359375	-437.3130493164064	1752.840209960938	1027.83837890625	-488.8423461914064	1997.090087890625	941.641784667969	-411.1743469238282	1976.4765625	907.8804321289065	-482.5084838867189	2076.5498046875	899.2437744140627	-410.4182434082032	2021.752075195313	845.6416015625002	-476.6872558593751	1578.134033203125	1251.23388671875	-150.8434753417969	1624.325561523438	1408.667846679688	-126.0691757202149	1672.211669921875	1408.50146484375	-60.7628631591797	1715.0048828125	1399.590942382813	-40.23809051513673	1633.61376953125	1071.661499023438	25.85700225830079	1604.273193359375	1060.014038085938	-55.41636276245119	1593.203125	1049.431762695313	-13.89699840545655	1738.875732421875	835.328552246094	-5.365565776824952	1688.7802734375	826.545837402344	57.38084411621095	1763.138305664063	743.5173950195314	-0.4405113458633424	1682.310302734375	741.9699707031251	61.82122039794923	
137	1.36	1808.163818359375	949.6898193359377	-356.0937194824219	1619.549194335938	980.5238037109377	-279.2543334960938	1626.07470703125	970.8680419921877	-175.2591247558594	1820.968505859375	952.5275878906252	-129.6222686767578	1695.679565429688	876.9515380859377	-422.9346008300782	1639.492553710938	465.2158508300782	-357.3210449218751	1638.921142578125	469.2763977050782	-227.2892761230469	1615.025756835938	407.193817138672	-352.5466613769532	1677.010009765625	400.7233276367189	-293.8215942382813	1514.476806640625	77.91567993164064	-291.8322753906251	1544.755859375	97.78363800048831	-204.0558471679688	1467.08056640625	37.24441146850587	-243.4689331054688	1657.447998046875	20.98898506164551	-205.7382965087891	1667.255981445313	33.09669494628907	-263.6656188964844	1621.554077148438	22.02252388000489	-317.2634277343751	1755.204711914063	859.8379516601565	-54.96471786499025	1917.789184570313	490.834930419922	-94.20858764648439	1926.813720703125	480.5743408203126	-221.5110778808594	1922.087768554688	431.9058837890626	-92.17915344238283	1985.199829101563	439.4586486816407	-144.4310760498047	1929.866088867188	88.58932495117189	-122.9252319335938	1966.741455078125	112.5839996337891	-205.1502532958985	1907.029541015625	32.65733718872071	-179.9294891357422	2090.873779296875	62.67307662963869	-176.5361022949219	2085.3779296875	75.04206848144533	-121.1740875244141	2043.660888671875	43.00549316406251	-81.86291503906251	1683.5556640625	1496.570556640625	-238.1891174316407	1605.152465820313	1218.923461914063	-241.7232513427735	1825.973022460938	1213.365966796875	-242.0928802490235	1799.337036132813	1405.672119140625	-241.2010192871094	1605.809448242188	1250.003662109375	-360.0806579589844	1649.575439453125	1403.500244140625	-378.3323059082032	1699.784790039063	1397.6298828125	-438.1351623535157	1746.888427734375	1400.710571289063	-433.7830200195314	1796.487548828125	1072.252319335938	-514.7199707031251	1762.696899414063	1037.236572265625	-438.9508056640626	1772.917114257813	1026.467895507813	-490.7529296875001	2021.575073242188	954.4375610351565	-410.2139892578126	2003.02001953125	918.2207641601565	-480.7157287597657	2103.853759765625	917.4104614257815	-409.1422729492189	2052.181640625	858.962097167969	-473.6804199218751	1592.9892578125	1248.745483398438	-150.7124938964844	1639.867553710938	1406.102416992188	-125.7140121459961	1687.828369140625	1405.7470703125	-60.48401641845705	1730.619140625	1396.610473632813	-39.81906127929688	1643.7607421875	1069.967895507813	24.79766273498536	1615.419921875	1058.723754882813	-56.72029113769533	1603.58544921875	1048.766967773438	-15.43944168090821	1741.687866210938	830.348083496094	-3.908068656921388	1690.863647460938	823.6746215820315	58.60344696044923	1761.808471679688	737.2647094726564	1.522991061210633	1680.924682617188	739.6471557617189	63.77490615844728	
